<svg width="33" height="32" viewBox="0 0 33 32" fill="none" xmlns="http://www.w3.org/2000/svg">
<path d="M7.81137 1.94293C8.15937 1.8936 10.66 1.5612 13.868 1.69586C14.4198 1.71861 14.8475 2.18512 14.825 2.73688C14.8024 3.28882 14.3373 3.71745 13.784 3.69489C10.596 3.56155 8.09159 3.92428 8.06625 3.92828C8.0424 3.93224 8.0172 3.93477 7.99203 3.9361C6.25341 4.06143 4.17963 5.09191 4.17953 9.28766C4.17953 11.1037 4.17572 13.0671 4.17172 14.9644C4.16506 18.5589 4.15687 21.9538 4.17953 23.647C4.1797 24.5636 4.76288 27.9713 7.61411 28.1382C11.7034 28.3756 19.0709 28.4295 22.4403 28.1402C22.4494 28.1402 22.4585 28.1386 22.4676 28.1373C22.4983 28.1359 25.5223 27.9289 25.869 24.9449C26.2169 21.9518 26.1928 19.7675 26.1834 18.9449C26.1834 18.8371 26.1815 18.752 26.1815 18.688C26.1815 18.136 26.6295 17.688 27.1815 17.688C27.7333 17.6882 28.1815 18.1361 28.1815 18.688C28.1815 18.7467 28.1808 18.8252 28.1834 18.9224C28.1928 19.7798 28.2203 22.0577 27.8563 25.1763C27.4268 28.8732 24.2375 30.0336 22.5975 30.1324C20.9522 30.2724 18.3888 30.3336 15.7088 30.3336L15.7108 30.3355C12.7641 30.3355 9.67318 30.261 7.49985 30.1343C5.68391 30.0277 4.20791 29.0907 3.23325 27.4214C2.45861 26.0935 2.18151 24.6081 2.18149 23.6588C2.16015 21.9641 2.16603 18.5612 2.1727 14.9586C2.1767 13.0626 2.18149 11.1013 2.18149 9.28668C2.18149 3.07128 6.08712 2.07775 7.81137 1.94293ZM20.4735 21.689C21.0253 21.6891 21.4733 22.1373 21.4735 22.689C21.4735 23.241 21.0254 23.6889 20.4735 23.689H9.80649C9.25456 23.6889 8.80649 23.241 8.80649 22.689C8.80671 22.1373 9.2547 21.6891 9.80649 21.689H20.4735ZM15.1395 16.356C15.6915 16.356 16.1394 16.8041 16.1395 17.356C16.1395 17.908 15.6915 18.356 15.1395 18.356H9.80649C9.25456 18.3559 8.80649 17.908 8.80649 17.356C8.80654 16.8041 9.25459 16.3561 9.80649 16.356H15.1395ZM23.16 1.68903C27.3906 1.68903 30.8338 5.12806 30.8338 9.35602C30.8338 13.584 27.3907 17.023 23.16 17.023C18.9295 17.0228 15.4872 13.5839 15.4872 9.35602C15.4872 5.12818 18.9295 1.68922 23.16 1.68903ZM23.16 3.68903C20.0322 3.68922 17.4872 6.23218 17.4872 9.35602C17.4872 12.4799 20.0322 15.0228 23.16 15.023C26.288 15.023 28.8338 12.48 28.8338 9.35602C28.8338 6.23206 26.288 3.68903 23.16 3.68903ZM25.4735 6.41364C25.9934 6.22965 26.5658 6.50115 26.7498 7.02106C26.9338 7.54106 26.6614 8.11342 26.1414 8.29742C25.0083 8.69889 23.3993 10.7142 22.6512 11.8902C22.4672 12.1795 22.1478 12.355 21.8065 12.355V12.356H21.7547C21.3949 12.3373 21.0719 12.1268 20.912 11.8043C20.3346 10.6483 19.7721 10.0694 19.7655 10.064C19.3749 9.67335 19.3748 9.03963 19.7655 8.64899C20.1561 8.25841 20.7899 8.25841 21.1805 8.64899C21.2285 8.69698 21.5094 8.98659 21.8827 9.52106C22.7506 8.39712 24.1096 6.89772 25.4735 6.41364Z" fill="#725727"/>
</svg>
